# xmcd CD database file
# Copyright (C) 1993-1998 Ti Kan
#
# Track frame offsets:
#  150
#  12402
#  33705
#  49502
#  63567
#  76435
#  96847
#  110682
#  133597
#  158105
#  172627
#
# Disc length: 2687 seconds
#
# Revision: 2
# Processed by: cddbd v1.4PL0 Copyright (c) Steve Scherf et al.
# Submitted via: Gronk 1.4
#
DISCID=890a7d0b
DTITLE=John Cowan - Soul'd Out
DYEAR=1900
DGENRE=blues
TTITLE0=634-5789
TTITLE1=Here I Am
TTITLE2=The Dark End Of The Street
TTITLE3=99-1/2
TTITLE4=I Was Made To Lover Her
TTITLE5=When A Man Loves A Woman
TTITLE6=Groove Me
TTITLE7=Two Steps From The Blues
TTITLE8=Mustang Sally
TTITLE9=I Thank You
TTITLE10=I Found A Love
EXTD=
EXTT0=
EXTT1=
EXTT2=
EXTT3=
EXTT4=
EXTT5=
EXTT6=
EXTT7=
EXTT8=
EXTT9=
EXTT10=
PLAYORDER=
